<svg width="28" height="30" viewBox="0 0 28 30" fill="none" xmlns="http://www.w3.org/2000/svg">
<path d="M19.094 8.16504C17.5878 8.16504 16.3666 9.38383 16.3666 10.8869V19.0525C16.3666 20.6732 15.9279 22.1896 15.1681 23.4974C14.2014 25.156 12.7047 26.4752 10.9117 27.2201C9.86328 27.6579 8.71231 27.8986 7.50243 27.8986C7.10734 27.8986 6.71417 27.8721 6.32861 27.821C7.70939 28.6948 9.2555 29.3317 10.9098 29.669C11.793 29.8472 12.7047 29.9401 13.6392 29.9401C14.5736 29.9401 15.4834 29.8472 16.3647 29.669C22.5908 28.4067 27.2764 22.9155 27.2764 16.3307C27.2764 11.8195 23.6125 8.16504 19.0922 8.16504" fill="#FF8136"/>
<path d="M12.982 21.758C11.6923 20.3174 10.9098 18.4163 10.9098 16.3313V2.72188C10.9098 1.48793 10.0893 0.447329 8.96108 0.111832C8.88698 0.0890868 8.80913 0.0720275 8.73121 0.0549683C8.55464 0.0189546 8.37231 0 8.18421 0C3.66382 0 0 3.65634 0 8.16564V19.0531C0 21.6746 1.35423 23.9852 3.39981 25.3215C4.5774 26.091 5.98481 26.5402 7.50045 26.5402C8.72934 26.5402 9.88608 26.2445 10.9098 25.7214C12.2184 25.0542 13.3049 24.0155 14.0266 22.7436C13.6487 22.446 13.2992 22.1162 12.982 21.7561" fill="#726F6E"/>
<path d="M20.5966 29.0596H20.4104V28.9175H20.946V29.0596H20.7599V29.6226H20.5966V29.0596ZM21.0657 28.9175H21.2632L21.3885 29.2454L21.512 28.9175H21.7114V29.6226H21.5595V29.181L21.4398 29.4937H21.3316L21.2138 29.1828V29.6226H21.0619V28.9175H21.0657Z" fill="#726F6E"/>
</svg>
